<svg width="25" height="25" viewBox="0 0 25 25" fill="none" xmlns="http://www.w3.org/2000/svg">
<path fill-rule="evenodd" clip-rule="evenodd" d="M7.61773 20.3125C7.8495 19.4146 8.66564 18.75 9.63543 18.75C10.6052 18.75 11.4214 19.4146 11.6531 20.3125H22.9167C22.9896 20.3125 23.0615 20.3276 23.1281 20.3573C23.1901 20.3849 23.2469 20.425 23.2938 20.474C23.3386 20.5208 23.3745 20.5766 23.399 20.6365C23.4214 20.6917 23.4344 20.7505 23.437 20.8099C23.4396 20.8667 23.4328 20.924 23.4167 20.9792C23.4026 21.0276 23.3813 21.074 23.3537 21.1167C23.2932 21.2099 23.2026 21.2823 23.0985 21.3214C23.0417 21.3427 22.9808 21.3536 22.9198 21.3542H22.9167H11.6531C11.4214 22.2521 10.6052 22.9167 9.63543 22.9167C8.66564 22.9167 7.8495 22.2521 7.61773 21.3542H2.08335C2.02241 21.3542 1.96148 21.3437 1.90419 21.3224C1.79898 21.2838 1.70732 21.2109 1.64638 21.1167C1.61877 21.074 1.59742 21.0276 1.58336 20.9792C1.56721 20.924 1.56044 20.8667 1.56304 20.8099C1.56565 20.7505 1.57867 20.6917 1.60106 20.6365C1.62554 20.5766 1.66148 20.5208 1.70627 20.474C1.75314 20.425 1.80991 20.3849 1.87189 20.3573C1.93856 20.3276 2.01043 20.3125 2.08335 20.3125H7.61773ZM9.63543 19.7917C10.2104 19.7917 10.6771 20.2583 10.6771 20.8333C10.6771 21.4083 10.2104 21.875 9.63543 21.875C9.06043 21.875 8.59377 21.4083 8.59377 20.8333C8.59377 20.2583 9.06043 19.7917 9.63543 19.7917ZM15.9511 11.9792C16.1828 11.0812 16.999 10.4167 17.9688 10.4167C18.9386 10.4167 19.7547 11.0812 19.9865 11.9792H22.9167C22.9896 11.9792 23.0615 11.9943 23.1281 12.024C23.1901 12.0516 23.2469 12.0917 23.2938 12.1406C23.3386 12.1875 23.3745 12.2432 23.399 12.3031C23.4214 12.3583 23.4344 12.4172 23.437 12.4766C23.4396 12.5333 23.4328 12.5906 23.4167 12.6458C23.4026 12.6943 23.3813 12.7406 23.3537 12.7833C23.2932 12.8766 23.2026 12.949 23.0985 12.988C23.0417 13.0094 22.9808 13.0203 22.9198 13.0208H22.9167H19.9865C19.7547 13.9187 18.9386 14.5833 17.9688 14.5833C16.999 14.5833 16.1828 13.9187 15.9511 13.0208H2.08335C2.01043 13.0208 1.93856 13.0057 1.87189 12.976C1.80991 12.9484 1.75314 12.9083 1.70627 12.8594C1.66148 12.8125 1.62554 12.7568 1.60106 12.6969C1.57867 12.6417 1.56565 12.5828 1.56304 12.5234C1.56044 12.4667 1.56721 12.4094 1.58336 12.3542C1.59742 12.3057 1.61877 12.2594 1.64638 12.2167C1.70732 12.1224 1.79898 12.0495 1.90419 12.0109C1.96148 11.9896 2.02241 11.9792 2.08335 11.9792H15.9511ZM17.9688 11.4583C18.5438 11.4583 19.0104 11.925 19.0104 12.5C19.0104 13.075 18.5438 13.5417 17.9688 13.5417C17.3938 13.5417 16.9271 13.075 16.9271 12.5C16.9271 11.925 17.3938 11.4583 17.9688 11.4583ZM4.23231 3.64583C4.46408 2.74791 5.28023 2.08333 6.25002 2.08333C7.21981 2.08333 8.03595 2.74791 8.26772 3.64583H22.9167C22.9896 3.64583 23.0615 3.66093 23.1281 3.69062C23.1901 3.71822 23.2469 3.75833 23.2938 3.80729C23.3386 3.85416 23.3745 3.90989 23.399 3.96978C23.4214 4.02499 23.4344 4.08385 23.437 4.14323C23.4396 4.2 23.4328 4.25729 23.4167 4.31249C23.4026 4.36093 23.3813 4.40729 23.3537 4.45C23.2932 4.54323 23.2026 4.61562 23.0985 4.65468C23.0417 4.67603 22.9808 4.68697 22.9198 4.6875H22.9167H8.26772C8.03595 5.58541 7.21981 6.25 6.25002 6.25C5.28023 6.25 4.46408 5.58541 4.23231 4.6875H2.08335C2.02241 4.6875 1.96148 4.67708 1.90419 4.65572C1.79898 4.61718 1.70732 4.54427 1.64638 4.45C1.61877 4.40729 1.59742 4.36093 1.58336 4.31249C1.56721 4.25729 1.56044 4.2 1.56304 4.14323C1.56565 4.08385 1.57867 4.02499 1.60106 3.96978C1.62554 3.90989 1.66148 3.85416 1.70627 3.80729C1.75314 3.75833 1.80991 3.71822 1.87189 3.69062C1.93856 3.66093 2.01043 3.64583 2.08335 3.64583H4.23231ZM6.25002 3.12499C6.82502 3.12499 7.29168 3.59166 7.29168 4.16666C7.29168 4.74166 6.82502 5.20833 6.25002 5.20833C5.67502 5.20833 5.20835 4.74166 5.20835 4.16666C5.20835 3.59166 5.67502 3.12499 6.25002 3.12499Z" fill="#B1A05A"/>
</svg>
